<svg width="20" height="22" viewBox="0 0 20 22" fill="none" xmlns="http://www.w3.org/2000/svg">
<path d="M3.1749 21.475C2.4249 21.475 1.7959 21.2207 1.2879 20.712C0.779236 20.204 0.524902 19.575 0.524902 18.825V5.17499C0.524902 4.42499 0.779236 3.79566 1.2879 3.28699C1.7959 2.77899 2.4249 2.52499 3.1749 2.52499H3.9999V0.524994H6.3249V2.52499H13.6749V0.524994H15.9999V2.52499H16.8249C17.5749 2.52499 18.2042 2.77899 18.7129 3.28699C19.2209 3.79566 19.4749 4.42499 19.4749 5.17499V18.825C19.4749 19.575 19.2209 20.204 18.7129 20.712C18.2042 21.2207 17.5749 21.475 16.8249 21.475H3.1749ZM3.1749 18.825H16.8249V8.99999H3.1749V18.825ZM3.1749 6.99999H16.8249V5.17499H3.1749V6.99999ZM3.1749 6.99999V5.17499V6.99999ZM9.9999 13.125C9.68324 13.125 9.41657 13.0167 9.1999 12.8C8.98324 12.5833 8.8749 12.3167 8.8749 12C8.8749 11.6833 8.98324 11.4167 9.1999 11.2C9.41657 10.9833 9.68324 10.875 9.9999 10.875C10.3166 10.875 10.5832 10.9833 10.7999 11.2C11.0166 11.4167 11.1249 11.6833 11.1249 12C11.1249 12.3167 11.0166 12.5833 10.7999 12.8C10.5832 13.0167 10.3166 13.125 9.9999 13.125ZM5.9999 13.125C5.68324 13.125 5.41657 13.0167 5.1999 12.8C4.98324 12.5833 4.8749 12.3167 4.8749 12C4.8749 11.6833 4.98324 11.4167 5.1999 11.2C5.41657 10.9833 5.68324 10.875 5.9999 10.875C6.31657 10.875 6.58324 10.9833 6.7999 11.2C7.01657 11.4167 7.1249 11.6833 7.1249 12C7.1249 12.3167 7.01657 12.5833 6.7999 12.8C6.58324 13.0167 6.31657 13.125 5.9999 13.125ZM13.9999 13.125C13.6999 13.125 13.4376 13.0167 13.2129 12.8C12.9876 12.5833 12.8749 12.3167 12.8749 12C12.8749 11.6833 12.9876 11.4167 13.2129 11.2C13.4376 10.9833 13.6999 10.875 13.9999 10.875C14.3166 10.875 14.5832 10.9833 14.7999 11.2C15.0166 11.4167 15.1249 11.6833 15.1249 12C15.1249 12.3167 15.0166 12.5833 14.7999 12.8C14.5832 13.0167 14.3166 13.125 13.9999 13.125ZM9.9999 17.125C9.68324 17.125 9.41657 17.0127 9.1999 16.788C8.98324 16.5627 8.8749 16.3 8.8749 16C8.8749 15.6833 8.98324 15.4167 9.1999 15.2C9.41657 14.9833 9.68324 14.875 9.9999 14.875C10.3166 14.875 10.5832 14.9833 10.7999 15.2C11.0166 15.4167 11.1249 15.6833 11.1249 16C11.1249 16.3 11.0166 16.5627 10.7999 16.788C10.5832 17.0127 10.3166 17.125 9.9999 17.125ZM5.9999 17.125C5.68324 17.125 5.41657 17.0127 5.1999 16.788C4.98324 16.5627 4.8749 16.3 4.8749 16C4.8749 15.6833 4.98324 15.4167 5.1999 15.2C5.41657 14.9833 5.68324 14.875 5.9999 14.875C6.31657 14.875 6.58324 14.9833 6.7999 15.2C7.01657 15.4167 7.1249 15.6833 7.1249 16C7.1249 16.3 7.01657 16.5627 6.7999 16.788C6.58324 17.0127 6.31657 17.125 5.9999 17.125ZM13.9999 17.125C13.6999 17.125 13.4376 17.0127 13.2129 16.788C12.9876 16.5627 12.8749 16.3 12.8749 16C12.8749 15.6833 12.9876 15.4167 13.2129 15.2C13.4376 14.9833 13.6999 14.875 13.9999 14.875C14.3166 14.875 14.5832 14.9833 14.7999 15.2C15.0166 15.4167 15.1249 15.6833 15.1249 16C15.1249 16.3 15.0166 16.5627 14.7999 16.788C14.5832 17.0127 14.3166 17.125 13.9999 17.125Z" fill="#878787"/>
</svg>
