<svg width="21" height="21" viewBox="0 0 21 21" fill="none" xmlns="http://www.w3.org/2000/svg">
<g clip-path="url(#clip0_28_747)">
<path d="M10.5 5.25C9.80777 5.25 9.13108 5.45527 8.55551 5.83986C7.97993 6.22444 7.53133 6.77107 7.26642 7.41061C7.00152 8.05015 6.9322 8.75388 7.06725 9.43282C7.2023 10.1117 7.53564 10.7354 8.02513 11.2249C8.51461 11.7144 9.13825 12.0477 9.81719 12.1827C10.4961 12.3178 11.1999 12.2485 11.8394 11.9836C12.4789 11.7187 13.0256 11.2701 13.4101 10.6945C13.7947 10.1189 14 9.44223 14 8.75C14 7.82174 13.6313 6.9315 12.9749 6.27513C12.3185 5.61875 11.4283 5.25 10.5 5.25ZM10.5 10.5C10.1539 10.5 9.81554 10.3974 9.52775 10.2051C9.23997 10.0128 9.01567 9.73947 8.88321 9.4197C8.75076 9.09993 8.7161 8.74806 8.78363 8.40859C8.85115 8.06913 9.01782 7.75731 9.26257 7.51256C9.50731 7.26782 9.81913 7.10115 10.1586 7.03363C10.4981 6.9661 10.8499 7.00076 11.1697 7.13321C11.4895 7.26566 11.7628 7.48997 11.9551 7.77775C12.1474 8.06554 12.25 8.40388 12.25 8.75C12.25 9.21413 12.0656 9.65925 11.7374 9.98744C11.4092 10.3156 10.9641 10.5 10.5 10.5Z" fill="black"/>
<path d="M10.5 21C9.7632 21.0038 9.03622 20.8309 8.37993 20.496C7.72364 20.1611 7.15715 19.6738 6.72787 19.075C3.39325 14.4751 1.70187 11.0171 1.70187 8.79636C1.70187 6.46295 2.62882 4.22511 4.27878 2.57514C5.92875 0.925173 8.16659 -0.00177002 10.5 -0.00177002C12.8334 -0.00177002 15.0712 0.925173 16.7212 2.57514C18.3712 4.22511 19.2981 6.46295 19.2981 8.79636C19.2981 11.0171 17.6067 14.4751 14.2721 19.075C13.8429 19.6738 13.2764 20.1611 12.6201 20.496C11.9638 20.8309 11.2368 21.0038 10.5 21ZM10.5 1.90836C8.67336 1.91044 6.92214 2.63699 5.63051 3.92862C4.33888 5.22025 3.61233 6.97147 3.61025 8.79811C3.61025 10.5569 5.26662 13.8092 8.27312 17.9559C8.52836 18.3074 8.8632 18.5935 9.25025 18.7908C9.6373 18.9881 10.0656 19.091 10.5 19.091C10.9344 19.091 11.3627 18.9881 11.7498 18.7908C12.1368 18.5935 12.4716 18.3074 12.7269 17.9559C15.7334 13.8092 17.3897 10.5569 17.3897 8.79811C17.3877 6.97147 16.6611 5.22025 15.3695 3.92862C14.0779 2.63699 12.3266 1.91044 10.5 1.90836Z" fill="black"/>
</g>
<defs>
<clipPath id="clip0_28_747">
<rect width="21" height="21" fill="white"/>
</clipPath>
</defs>
</svg>
