<svg width="20" height="20" viewBox="0 0 20 20" fill="none" xmlns="http://www.w3.org/2000/svg">
<path d="M10 5.83332C9.54166 5.83332 9.16666 6.20832 9.16666 6.66666V9.16666H6.66667C6.20833 9.16666 5.83333 9.54166 5.83333 9.99999C5.83333 10.4583 6.20833 10.8333 6.66667 10.8333H9.16666V13.3333C9.16666 13.7917 9.54166 14.1667 10 14.1667C10.4583 14.1667 10.8333 13.7917 10.8333 13.3333V10.8333H13.3333C13.7917 10.8333 14.1667 10.4583 14.1667 9.99999C14.1667 9.54166 13.7917 9.16666 13.3333 9.16666H10.8333V6.66666C10.8333 6.20832 10.4583 5.83332 10 5.83332ZM10 1.66666C5.4 1.66666 1.66667 5.39999 1.66667 9.99999C1.66667 14.6 5.4 18.3333 10 18.3333C14.6 18.3333 18.3333 14.6 18.3333 9.99999C18.3333 5.39999 14.6 1.66666 10 1.66666ZM10 16.6667C6.325 16.6667 3.33333 13.675 3.33333 9.99999C3.33333 6.32499 6.325 3.33332 10 3.33332C13.675 3.33332 16.6667 6.32499 16.6667 9.99999C16.6667 13.675 13.675 16.6667 10 16.6667Z" fill="#4686E6"/>
</svg>
