<svg width="21" height="21" viewBox="0 0 21 21" fill="none" xmlns="http://www.w3.org/2000/svg">
<g clip-path="url(#clip0_28_745)">
<path d="M19.2999 4.57623L12.8476 1.50235C11.4273 0.653988 9.65956 0.638935 8.225 1.46298L1.70015 4.57623C1.67566 4.58849 1.65027 4.60162 1.62665 4.6156C0.0782271 5.50097 -0.459324 7.47394 0.426039 9.02236C0.726151 9.54728 1.1676 9.97737 1.70015 10.2637L3.50004 11.1213V15.4087C3.5011 17.3259 4.74859 19.0197 6.57916 19.5895C7.85307 19.958 9.17397 20.1385 10.5001 20.125C11.8259 20.1399 13.1468 19.9609 14.4209 19.5939C16.2515 19.0241 17.499 17.3303 17.5001 15.4131V11.1195L19.2501 10.283V17.5C19.2501 17.9832 19.6418 18.375 20.1251 18.375C20.6083 18.375 21 17.9832 21 17.5V6.99997C21.0059 5.97248 20.1946 5.0233 19.2999 4.57623ZM15.75 15.4131C15.7505 16.5599 15.0064 17.5742 13.9125 17.9182C12.8032 18.2352 11.6537 18.3891 10.5 18.375C9.34636 18.3891 8.19682 18.2352 7.08751 17.9182C5.99358 17.5742 5.24956 16.5599 5.25001 15.4131V11.9551L8.1524 13.3377C8.86853 13.7629 9.68642 13.9864 10.5193 13.9843C11.312 13.9899 12.0915 13.78 12.7742 13.377L15.75 11.9551V15.4131ZM18.55 8.68435L11.9508 11.8344C11.0306 12.3701 9.89011 12.355 8.98452 11.795L2.52788 8.72373C1.80818 8.33564 1.53937 7.4376 1.92746 6.71794C2.05871 6.47456 2.2555 6.2728 2.49552 6.13548L9.05363 3.00299C9.97407 2.4684 11.114 2.48353 12.0199 3.04237L18.4721 6.11624C18.9466 6.37973 19.2435 6.87729 19.25 7.42001C19.2509 7.9341 18.9861 8.41217 18.55 8.68435Z" fill="black"/>
</g>
<defs>
<clipPath id="clip0_28_745">
<rect width="21" height="21" fill="white"/>
</clipPath>
</defs>
</svg>
