<svg width="20" height="20" viewBox="0 0 20 20" fill="none" xmlns="http://www.w3.org/2000/svg">
<path d="M10 13.3333C11.3807 13.3333 12.5 12.214 12.5 10.8333C12.5 9.45262 11.3807 8.33333 10 8.33333C8.61929 8.33333 7.5 9.45262 7.5 10.8333C7.5 12.214 8.61929 13.3333 10 13.3333Z" fill="#4686E6"/>
<path d="M16.6667 4.16667H14.025L12.9917 3.04167C12.6833 2.7 12.2333 2.5 11.7667 2.5H8.23333C7.76667 2.5 7.31667 2.7 7 3.04167L5.975 4.16667H3.33333C2.41667 4.16667 1.66667 4.91667 1.66667 5.83333V15.8333C1.66667 16.75 2.41667 17.5 3.33333 17.5H16.6667C17.5833 17.5 18.3333 16.75 18.3333 15.8333V5.83333C18.3333 4.91667 17.5833 4.16667 16.6667 4.16667ZM10 15C7.7 15 5.83333 13.1333 5.83333 10.8333C5.83333 8.53333 7.7 6.66667 10 6.66667C12.3 6.66667 14.1667 8.53333 14.1667 10.8333C14.1667 13.1333 12.3 15 10 15Z" fill="#4686E6"/>
</svg>
